<?xml version="1.0" encoding="UTF-8"?>
<svg id="Layer_2" data-name="Layer 2" xmlns="http://www.w3.org/2000/svg" viewBox="0 0 1269.59 279.78">
  <defs>
    <style>
      .cls-1 {
        fill: #000000;
      }
    </style>
  </defs>
  <g id="Layer_1-2" data-name="Layer 1">
    <g>
      <g>
        <g>
          <path class="cls-1" d="M283.24,172.12c-25.93,0-47.03-21.1-47.03-47.03s21.1-47.03,47.03-47.03,47.03,21.1,47.03,47.03-21.1,47.03-47.03,47.03ZM283.24,94.06c-17.11,0-31.03,13.92-31.03,31.03s13.92,31.03,31.03,31.03,31.03-13.92,31.03-31.03-13.92-31.03-31.03-31.03Z"/>
          <path class="cls-1" d="M216.76,94.06c-25.93,0-47.03-21.1-47.03-47.03S190.83,0,216.76,0s47.03,21.1,47.03,47.03-21.1,47.03-47.03,47.03ZM216.76,16c-17.11,0-31.03,13.92-31.03,31.03s13.92,31.03,31.03,31.03,31.03-13.92,31.03-31.03-13.92-31.03-31.03-31.03Z"/>
          <path class="cls-1" d="M47.03,172.12c-25.93,0-47.03-21.1-47.03-47.03s21.1-47.03,47.03-47.03,47.03,21.1,47.03,47.03-21.1,47.03-47.03,47.03ZM47.03,94.06c-17.11,0-31.03,13.92-31.03,31.03s13.92,31.03,31.03,31.03,31.03-13.92,31.03-31.03-13.92-31.03-31.03-31.03Z"/>
          <path class="cls-1" d="M113.51,94.06c-25.93,0-47.03-21.1-47.03-47.03S87.58,0,113.51,0s47.03,21.1,47.03,47.03-21.1,47.03-47.03,47.03ZM113.51,16c-17.11,0-31.03,13.92-31.03,31.03s13.92,31.03,31.03,31.03,31.03-13.92,31.03-31.03-13.92-31.03-31.03-31.03Z"/>
        </g>
        <path class="cls-1" d="M165.14,275.96l-3.08-1.28c-22.72-9.47-38.3-30.54-40.65-55-.19-1.97-.29-3.96-.31-5.93,0-.17,0-.34,0-.52,0-7.6,2.96-14.75,8.34-20.13,5.38-5.38,12.53-8.34,20.14-8.34,5.59,0,10.98,1.63,15.55,4.62,4.59-3.01,9.96-4.62,15.57-4.62,15.7,0,28.48,12.77,28.48,28.48,0,.17,0,.34,0,.52-.01,1.97-.12,3.96-.31,5.93-1.47,15.29-8.28,29.71-19.18,40.61-6.19,6.19-13.41,11.03-21.47,14.39l-3.08,1.28ZM149.58,200.75c-3.33,0-6.46,1.3-8.82,3.66-2.36,2.36-3.65,5.49-3.65,8.82v.36c.01,1.51.09,3.04.24,4.55,1.68,17.44,12.22,32.62,27.8,40.36,4.89-2.43,9.33-5.63,13.23-9.53,8.28-8.28,13.45-19.23,14.57-30.83.15-1.51.22-3.04.23-4.55v-.36c0-6.88-5.59-12.48-12.47-12.48-3.33,0-6.47,1.3-8.83,3.66-.22.22-.44.46-.65.7l-6.08,7.13-6.09-7.12c-2.38-2.78-5.83-4.37-9.48-4.37Z"/>
        <path class="cls-1" d="M187.65,279.78c-7.75,0-15.31-1.31-22.51-3.91-7.21,2.59-14.76,3.91-22.51,3.91-17.77,0-34.48-6.92-47.05-19.49-12.57-12.57-19.49-29.28-19.49-47.05s6.92-34.48,19.49-47.05c1.2-1.2,2.45-2.36,3.75-3.47,2.09-14.02,8.68-27.12,18.76-37.21,12.57-12.57,29.28-19.49,47.05-19.49,16.65,0,32.59,6.18,44.87,17.4,11.35,10.37,18.71,24.22,20.95,39.3,14.81,12.67,23.23,30.9,23.23,50.53,0,17.78-6.92,34.49-19.49,47.05-12.57,12.57-29.28,19.49-47.05,19.49ZM185.95,263.75c.56.02,1.13.03,1.7.03,13.5,0,26.2-5.26,35.74-14.81,9.55-9.54,14.8-22.24,14.8-35.74,0-15.78-7.17-30.37-19.67-40.02l-2.74-2.12-.33-3.45c-2.5-26.02-24.13-45.63-50.31-45.63-13.5,0-26.19,5.26-35.74,14.8-8.28,8.28-13.45,19.23-14.57,30.83l-.33,3.45-2.74,2.12c-1.71,1.32-3.35,2.77-4.87,4.29-9.54,9.55-14.8,22.24-14.8,35.74s5.26,26.19,14.8,35.74c9.55,9.55,22.24,14.81,35.74,14.81.55,0,1.11,0,1.66-.03-12.85-11.01-21.21-26.69-22.88-44.07-.19-1.97-.29-3.96-.31-5.93,0-.17,0-.34,0-.51,0-7.6,2.96-14.75,8.34-20.13,5.38-5.38,12.53-8.34,20.14-8.34,5.59,0,10.98,1.63,15.55,4.62,4.59-3.01,9.96-4.62,15.57-4.62,15.7,0,28.48,12.77,28.48,28.48,0,.17,0,.34,0,.51-.01,1.97-.12,3.96-.31,5.93-1.47,15.29-8.28,29.71-19.18,40.61-1.21,1.21-2.45,2.36-3.74,3.46ZM149.58,200.75c-3.33,0-6.46,1.3-8.82,3.66-2.36,2.36-3.65,5.49-3.65,8.82v.36c.01,1.51.09,3.04.24,4.55,1.68,17.44,12.22,32.62,27.8,40.36,4.89-2.43,9.33-5.63,13.23-9.53,8.28-8.28,13.45-19.23,14.57-30.83.15-1.51.22-3.04.23-4.55v-.36c0-6.88-5.59-12.48-12.47-12.48-3.33,0-6.47,1.3-8.83,3.66-.22.22-.44.46-.65.7l-6.08,7.13-6.09-7.12c-2.38-2.78-5.83-4.37-9.48-4.37Z"/>
      </g>
      <g>
        <path class="cls-1" d="M447.25,82.71c-15.31,0-27.77,6.12-36.14,16.54v-14.09h-24.09v144.14h25.93v-47.98c8.17,8.78,19.6,13.88,33.69,13.88,30.83,0,53.29-24.09,53.29-56.14s-21.84-56.35-52.67-56.35ZM443.17,172.34c-18.58,0-31.24-13.68-31.24-33.28s12.66-33.28,31.24-33.28,30.83,14.09,30.83,33.28-13.07,33.28-30.83,33.28Z"/>
        <path class="cls-1" d="M601.8,100.47c-7.96-10.41-20.01-16.13-35.52-16.13-30.83,0-53.29,22.46-53.29,54.72s22.46,56.14,53.29,56.14c15.52,0,27.56-6.33,35.52-16.95v14.5h24.09v-107.59h-24.09v15.31ZM569.74,172.34c-17.76,0-30.83-14.09-30.83-33.28s13.07-33.28,30.83-33.28,31.24,13.48,31.24,33.28-12.66,33.28-31.24,33.28Z"/>
        <polygon class="cls-1" points="754.91 167.03 734.5 85.16 705.51 85.16 685.09 167.44 666.51 85.16 639.97 85.16 668.55 192.75 699.18 192.75 720 114.36 741.03 192.75 771.66 192.75 799.83 85.16 773.29 85.16 754.91 167.03"/>
        <path class="cls-1" d="M1266.93,97.41c-.41-1.43-1.02-1.84-2.04-1.84-3.88,0-18.78,4.29-18.78,6.74,0,2.25,2.04,7.55,2.04,16.33,0,19.6-7.35,39.2-21.23,57.57l-.61-.2c-2.65-25.52-12.86-56.14-21.44-72.07-.61-1.23-1.22-1.84-2.25-1.84-3.88,0-17.15,1.84-20.62,3.06-1.22.41-1.84,1.23-2.04,2.04-3.47,22.87-9.6,47.77-20.21,69.01l-.61-.2c-4.9-26.75-16.54-55.53-27.97-72.68-1.43-1.84-2.65-3.06-3.88-3.06-4.49,0-20.82,7.35-20.82,10.62,0,.89.05,2.23.1,3.68-8.13-9.38-20.3-15.12-35.21-15.12-28.99,0-48.79,21.03-48.79,48.39,0,2.6.16,5.13.48,7.58-6.07,11.15-17.18,22.02-35.19,22.02-18.99,0-30.62-13.47-30.62-34.3v-10.82c28.17-8.37,53.08-29.4,53.08-54.1,0-16.74-11.43-29.2-29.6-29.2-30.01,0-43.89,31.85-43.89,69.21v25.52c0,2.09.09,4.13.26,6.12-5.32,14.06-13.88,23.28-29.85,23.28-2.45,0-4.49-.2-6.53-.61l.61-65.94c0-2.65-1.43-4.7-4.08-4.7h-13.07c-2.65,0-4.08,2.04-4.08,4.49v3.67l-.82.41c-7.35-6.74-17.56-11.03-28.79-11.03-26.13,0-43.9,21.44-43.9,49.41s15.31,46.14,39,46.14c19.4,0,30.62-13.47,35.12-24.3l.82.2v18.38c0,24.5-10.41,38.18-27.56,38.18-8.17,0-14.5-3.67-19.19-7.55-1.84-1.63-2.65-2.04-3.67-2.04-2.86,0-10,9.8-10,13.07,0,4.9,13.47,15.52,31.85,15.52,30.83,0,46.96-20.42,47.77-54.51,1.43.2,3.06.2,4.7.2,17.59,0,29.93-8.35,37.8-20.31,7.71,14.52,22.08,23.17,41.2,23.17,20.3,0,35.42-8.43,45.07-20.78,7.8,12.9,21.75,20.78,39.45,20.78,32.08,0,48.2-23.64,48.77-47.5,1.82-7.57,2.93-15.53,3.29-22.74l.61-.2c7.55,16.54,15.31,37.16,21.64,64.72.41,1.63,1.43,2.45,3.06,3.06,3.47,1.22,12.66,2.04,17.76,2.04,2.04,0,3.27-.82,3.88-1.84,14.7-19.6,23.07-48.18,25.52-67.58h.82c5.72,16.95,11.84,41.04,15.52,64.31.2,1.63,1.02,2.45,2.25,2.86,3.27,1.43,13.68,2.25,18.78,2.25,2.04,0,2.86-.82,3.47-1.43,19.19-19.6,35.32-49.41,35.32-77.17,0-5.1-.2-11.23-2.65-18.37ZM980.3,66.58c7.15,0,11.03,5.1,11.03,12.05,0,16.13-19.19,30.01-34.1,35.32.61-22.05,7.76-47.37,23.07-47.37ZM849.64,176.22c-12.05,0-21.03-10.41-21.03-26.34,0-18.58,11.84-31.44,28.17-31.44,9.6,0,18.58,5.72,23.07,10.41,0,20.62-10.82,47.37-30.22,47.37ZM1069.92,177.65c-14.5,0-25.32-12.04-25.32-30.01,0-15.92,10.21-30.62,26.54-30.62s24.3,12.45,24.3,28.79c0,17.76-9.39,31.85-25.52,31.85Z"/>
      </g>
    </g>
  </g>
</svg>