<svg width="152" height="152" viewBox="0 0 152 152" fill="none" xmlns="http://www.w3.org/2000/svg">
<g id="Group 8">
<path id="Vector" d="M48.7248 152C39.4483 152 30.7341 148.393 24.1906 141.85C21.8325 139.492 19.8023 136.759 18.2093 133.808C15.2577 132.215 12.5248 130.185 10.151 127.812C-3.37325 114.289 -3.37325 92.287 10.151 78.7642C16.7257 72.1902 25.44 68.5518 34.6852 68.5518C37.996 68.5518 41.2911 69.0359 44.4458 69.9572L68.9956 45.4099C65.4661 33.4798 68.6051 20.3161 77.7879 11.1187C84.3314 4.57589 93.0456 0.96875 102.322 0.96875C111.599 0.96875 120.313 4.57589 126.856 11.1187C129.214 13.4766 131.245 16.2093 132.853 19.1606C135.805 20.7533 138.538 22.7833 140.896 25.1412C154.42 38.6641 154.436 60.6817 140.896 74.2045C134.321 80.7786 125.607 84.4013 116.377 84.4013C113.067 84.4013 109.771 83.9172 106.617 82.9959L82.0669 107.543C85.5963 119.473 82.4417 132.653 73.259 141.834C66.7155 148.377 58.0169 151.969 48.7404 151.984L48.7248 152Z" fill="#F7F7F7"/>
<path id="Vector_2" d="M133.134 32.9177C130.714 30.4817 127.778 28.6235 124.576 27.4367C123.405 24.2356 121.531 21.3155 119.095 18.8795C109.834 9.61966 94.7635 9.61966 85.5027 18.8795C77.6161 26.7653 76.3199 38.711 81.942 47.924L46.9289 82.9335C37.6993 77.3276 25.7523 78.6237 17.8814 86.4938C8.62058 95.7537 8.62058 110.822 17.8814 120.082C20.302 122.518 23.238 124.392 26.4395 125.579C27.6108 128.78 29.4848 131.7 31.9054 134.12C36.5436 138.758 42.6342 141.069 48.7248 141.069C54.8154 141.069 60.8904 138.758 65.513 134.136C73.3996 126.25 74.6958 114.305 69.0893 105.076L104.102 70.0665C113.332 75.688 125.263 74.3919 133.134 66.5062C142.395 57.2463 142.395 42.1776 133.134 32.9177ZM127.622 60.994C121.75 66.8498 112.536 67.287 106.164 61.9778L103.431 59.6979L58.704 104.405L60.9841 107.153C66.2002 113.415 65.7629 122.831 60.0002 128.608C56.9862 131.622 52.9883 133.277 48.7248 133.277C44.4614 133.277 40.4635 131.606 37.4494 128.593C35.4661 126.625 34.0449 124.158 33.3266 121.456L32.7331 119.286L30.5624 118.708C27.8606 117.974 25.3932 116.553 23.4098 114.57C20.3957 111.556 18.7403 107.543 18.7403 103.296C18.7403 99.0485 20.3957 95.0354 23.4098 92.0216C26.4239 89.0079 30.6092 87.3214 34.7008 87.3214C38.2927 87.3214 41.9002 88.5394 44.8831 91.0222L47.616 93.3021L92.3429 48.5798L90.0472 45.8472C84.7374 39.4917 85.1591 30.2787 91.0311 24.3917C97.2622 18.1768 107.366 18.1768 113.582 24.3917C115.565 26.3905 117.002 28.8577 117.72 31.5436L118.314 33.7297L120.485 34.3075C123.186 35.0258 125.654 36.4624 127.622 38.4299C130.636 41.4437 132.291 45.4568 132.307 49.7198C132.307 53.9827 130.651 57.9803 127.637 60.994H127.622Z" fill="black"/>
<path id="Vector_3" d="M132.291 49.7198C132.291 53.9828 130.635 57.9803 127.621 60.994C121.749 66.8498 112.535 67.287 106.164 61.9778L103.431 59.698L58.7039 104.405L60.984 107.153C66.2001 113.415 65.7628 122.831 60.0001 128.608C56.9861 131.622 52.9881 133.277 48.7247 133.277C44.4613 133.277 40.4634 131.606 37.4493 128.593C35.466 126.625 34.0448 124.158 33.3264 121.456L32.733 119.286L30.5622 118.708C27.8605 117.974 25.393 116.553 23.4097 114.57C20.3956 111.556 18.7402 107.543 18.7402 103.296C18.7402 99.0485 20.3956 95.0354 23.4097 92.0217C26.4238 89.0079 30.6091 87.3214 34.7007 87.3214C38.2926 87.3214 41.9001 88.5394 44.883 91.0223L47.6159 93.3021L92.3428 48.5799L90.0471 45.8472C84.7373 39.4918 85.159 30.2787 91.031 24.3918C97.2621 18.1769 107.366 18.1769 113.582 24.3918C115.565 26.3905 117.002 28.8577 117.72 31.5436L118.314 33.7297L120.484 34.3075C123.186 35.0258 125.654 36.4624 127.621 38.4299C130.635 41.4437 132.291 45.4568 132.306 49.7198H132.291Z" fill="#FEFBDD"/>
</g>
</svg>
