<svg width="1079" height="608" viewBox="0 0 1079 608" fill="none" xmlns="http://www.w3.org/2000/svg">
<g opacity="0.8" clip-path="url(#clip0_2014_108)">
<path d="M535.789 106.071C536.638 120.497 558.264 131.316 596.005 134.074C633.745 136.832 630.141 150.197 691.417 150.197C752.692 150.197 759.901 138.529 780.467 124.103C801.246 109.678 809.303 122.406 840.683 116.042C872.275 109.678 867.61 92.7063 893.689 88.0391C919.768 83.5841 915.316 78.0684 914.468 57.4906C913.62 36.7007 892.841 45.8228 872.275 49.4292C851.496 53.0356 602.366 42.2164 583.495 50.2778C564.625 58.3392 534.093 73.6135 535.789 106.071Z" fill="white"/>
<path d="M195.276 0C190.399 24.8207 185.311 57.9149 187.007 77.6441C190.399 112.86 195.7 159.955 161.776 167.592C127.852 175.23 69.5445 143.408 65.304 172.047C60.8514 200.687 57.6711 281.725 92.6553 300.394C127.852 319.062 113.434 358.521 86.0825 368.491C63.8198 376.765 11.0253 398.828 0 448.681C113.434 455.045 92.4433 436.589 131.244 458.015C170.469 479.654 158.171 478.169 193.368 480.927C228.352 483.685 221.779 455.257 248.706 455.257C275.634 455.257 308.074 483.897 347.298 481.139C386.523 478.381 447.163 476.896 460.732 490.473C474.302 504.05 483.631 517.415 524.128 502.565C564.625 487.715 575.438 493.019 606.394 475.623C637.35 458.015 650.92 462.046 675.303 462.046C699.686 462.046 715.799 486.442 752.268 498.535C788.736 510.627 869.73 564.723 921.041 564.723C972.351 564.723 992.493 556.662 1006.06 576.815C1019.63 596.969 1037.02 606.515 1060.13 607.788C1083.03 609.061 1079 599.726 1079 586.149C1079 572.572 1018.36 575.33 1015.6 545.63C1012.85 515.93 1004.79 482.2 1007.55 440.195C1010.3 398.191 1029.17 404.98 1026.42 361.915C1023.66 318.638 1030.45 302.515 995.462 296.999C960.477 291.484 926.553 266.027 903.654 276.846C880.756 287.665 852.344 296.999 815.876 298.484C779.407 299.757 750.996 280.876 737.638 301.242C724.069 321.396 725.553 328.184 699.898 326.911C674.242 325.639 641.802 283.634 598.761 278.331C555.508 273.027 523.28 259.45 528.581 235.054C533.881 210.657 554.236 202.596 551.479 182.442C548.723 162.289 541.938 152.742 513.739 154.015C485.327 155.288 480.027 135.135 480.027 110.738C480.027 86.3419 473.242 56.642 443.558 58.127C413.875 59.3999 386.947 42.0042 370.621 54.0963C354.507 66.1884 334.153 77.0077 323.34 67.6734C312.526 58.127 313.798 13.1528 284.115 19.5171L254.431 25.8814C254.431 25.8814 219.447 37.9735 199.092 5.72784C197.82 3.81856 196.76 1.90928 195.7 0L195.276 0Z" fill="white"/>
</g>
<defs>
<clipPath id="clip0_2014_108">
<rect width="1079" height="608" fill="white"/>
</clipPath>
</defs>
</svg>
