<?xml version="1.0" encoding="UTF-8"?>
<svg id="Layer_2" data-name="Layer 2" xmlns="http://www.w3.org/2000/svg" viewBox="0 0 1200 1200">
  <defs>
    <style>
      .cls-1 {
        stroke: #4aa4db;
        stroke-width: 31.04px;
      }

      .cls-1, .cls-2 {
        stroke-miterlimit: 10;
      }

      .cls-1, .cls-3 {
        fill: #fff;
      }

      .cls-2 {
        fill: none;
        stroke: #231f20;
        stroke-width: 34.68px;
      }
    </style>
  </defs>
  <g id="Layer_1-2" data-name="Layer 1">
    <g>
      <path class="cls-3" d="M600,1200c-160.27,0-310.94-62.41-424.26-175.74C62.41,910.94,0,760.26,0,600S62.41,289.06,175.74,175.74C289.06,62.41,439.73,0,600,0s310.94,62.41,424.26,175.74c113.33,113.32,175.74,264,175.74,424.26s-62.41,310.94-175.74,424.26c-113.32,113.33-264,175.74-424.26,175.74Z"/>
      <circle class="cls-1" cx="600" cy="600" r="498"/>
      <g>
        <g>
          <rect class="cls-2" x="760.82" y="594.96" width="169.18" height="169.18" rx="84.59" ry="84.59" transform="translate(1322.66 1653.58) rotate(-154.9)"/>
          <rect class="cls-2" x="702.11" y="380.63" width="169.18" height="169.18" rx="84.59" ry="84.59" transform="translate(1301.72 1220.25) rotate(-154.9)"/>
          <rect class="cls-2" x="297.22" y="377.76" width="169.18" height="169.18" rx="84.59" ry="84.59" transform="translate(232.22 -118.31) rotate(25.1)"/>
          <rect class="cls-2" x="499.48" y="285.69" width="169.18" height="169.18" rx="84.59" ry="84.59" transform="translate(212.26 -212.82) rotate(25.1)"/>
        </g>
        <path class="cls-2" d="M603.29,777.08c-.12.26-.25.53-.38.79-1.65,3.48-3.45,6.85-5.38,10.11-15.41,26.05-39.04,44.84-65.96,54.58-15.47,5.6-32.03,8.21-48.72,7.49-30.79-33.87-41.7-82.94-25.7-127.84,1.27-3.56,2.71-7.11,4.32-10.6.12-.27.24-.53.37-.8,5.2-11.1,14.41-19.03,25.09-22.9,10.68-3.87,22.83-3.66,33.93,1.54,12.22,5.72,20.61,16.31,23.94,28.38,1.05-.48,2.12-.91,3.2-1.3,10.68-3.87,22.84-3.66,33.94,1.54,22.19,10.4,31.76,36.82,21.36,59.02Z"/>
        <path class="cls-2" d="M691.63,818.47c-14.87,31.73-41.18,54.43-71.72,65.48-30.54,11.05-65.29,10.46-97.02-4.41h0c-15.65-7.34-29.11-17.46-40.05-29.5,16.69.72,33.25-1.89,48.72-7.49,26.92-9.74,50.56-28.53,65.96-54.58,1.93-3.26,3.73-6.63,5.38-10.11.13-.26.25-.53.38-.79,10.4-22.19.83-48.62-21.36-59.02-11.1-5.2-23.26-5.41-33.94-1.54-1.08.39-2.15.83-3.2,1.3-3.33-12.07-11.73-22.65-23.94-28.38-11.1-5.2-23.25-5.4-33.93-1.54-10.68,3.87-19.89,11.8-25.09,22.9-.12.26-.25.53-.37.8-1.61,3.5-3.05,7.04-4.32,10.6-15.99,44.9-5.09,93.97,25.7,127.84-16.25-.7-32.64-4.56-48.3-11.89-31.73-14.87-54.43-41.19-65.48-71.72-11.05-30.53-10.45-65.28,4.41-97.01,14.87-31.73,41.19-54.43,71.72-65.48,5.09-1.84,10.31-3.36,15.62-4.55,15.41-26.06,39.04-44.85,65.96-54.59,30.53-11.05,65.28-10.45,97.01,4.41,59.71,27.97,87.44,96.48,65.76,157.34,17.35,33.75,19.43,74.89,2.09,111.92Z"/>
      </g>
    </g>
  </g>
</svg>