<svg width="187" height="187" viewBox="0 0 187 187" fill="none" xmlns="http://www.w3.org/2000/svg">
<g id="Group 7">
<g id="Layer_1">
<g id="Group">
<path id="Vector" d="M143.202 68.5558C140.605 58.1728 130.158 51.8058 119.92 54.3663C119.55 54.4589 119.187 54.5792 118.824 54.6996C118.761 54.4494 118.743 54.2028 118.681 53.9526C116.084 43.5696 105.637 37.2026 95.399 39.7631C89.7521 41.1754 85.3377 45.0116 82.94 49.9238C78.5156 46.7325 72.8116 45.412 67.1647 46.8243C56.9264 49.3848 50.7067 59.9198 53.3034 70.3029C53.366 70.553 53.4525 70.7825 53.5288 71.0293C53.1518 71.094 52.7747 71.1588 52.4047 71.2513C42.1835 73.8223 35.9604 84.3434 38.5571 94.7265C40.8027 103.706 48.9023 109.655 57.6809 109.468C56.1069 114.588 55.9196 120.07 57.2579 125.421C59.1733 133.08 63.9207 139.543 70.608 143.631C77.309 147.715 85.1526 148.914 92.7046 147.025C97.392 145.853 101.613 143.571 105.09 140.413C109.662 141.573 114.456 141.585 119.13 140.416C126.682 138.528 133.034 133.764 137.027 127.02C144.014 115.185 141.766 100.314 132.471 90.9265C140.785 87.1932 145.493 77.8337 143.174 68.5627L143.202 68.5558Z" fill="white"/>
<path id="Vector_2" d="M75.6889 135.064C71.1184 132.279 68.0686 127.887 66.8555 123.036C65.6423 118.185 66.252 112.878 68.9868 108.266L78.9608 91.3713C84.3519 82.2398 96.0431 79.316 105.098 84.8347L121.851 95.0448C131.009 100.626 134.009 112.622 128.553 121.843C125.832 126.452 121.514 129.511 116.731 130.708C111.947 131.904 106.702 131.251 102.128 128.452C96.6751 137.687 84.8469 140.646 75.7026 135.061L75.6889 135.064Z" fill="#F2B7B7"/>
<path id="Vector_3" d="M126.907 82.3047C131.865 81.0647 134.865 75.9834 133.608 70.9553C132.35 65.9271 127.311 62.8562 122.353 64.0962C117.395 65.3361 114.395 70.4174 115.653 75.4456C116.91 80.4737 121.949 83.5447 126.907 82.3047Z" fill="#F2B7B7"/>
<path id="Vector_4" d="M102.389 67.7154C107.348 66.4754 110.347 61.3941 109.09 56.366C107.832 51.3378 102.794 48.2669 97.8357 49.5069C92.8776 50.7468 89.8777 55.8281 91.1352 60.8563C92.3927 65.8844 97.4314 68.9554 102.389 67.7154Z" fill="#F2B7B7"/>
<path id="Vector_5" d="M59.4054 99.1862C64.3635 97.9463 67.3634 92.8649 66.1059 87.8368C64.8484 82.8086 59.8097 79.7377 54.8517 80.9777C49.8936 82.2176 46.8937 87.299 48.1512 92.3271C49.4087 97.3553 54.4474 100.426 59.4054 99.1862Z" fill="#F2B7B7"/>
<path id="Vector_6" d="M74.1691 74.773C79.1272 73.5331 82.1271 68.4517 80.8696 63.4236C79.6121 58.3954 74.5734 55.3245 69.6153 56.5645C64.6573 57.8044 61.6573 62.8858 62.9148 67.9139C64.1723 72.9421 69.211 76.013 74.1691 74.773Z" fill="#F2B7B7"/>
</g>
</g>
</g>
</svg>
